<svg xmlns="http://www.w3.org/2000/svg" viewBox="0 0 441.67 63.06"><defs><style>.cls-1{fill:none;stroke:#e6b222;stroke-width:4.09px;}.cls-2{fill:#d1d3d4;}.cls-3{fill:#fff;}.cls-4{fill:#e6b222;}.cls-5{fill:#808285;}.cls-6{fill:#a7a9ac;}</style></defs><title>Asset 1</title><g id="Layer_2" data-name="Layer 2"><g id="Layer_1-2" data-name="Layer 1"><line class="cls-1" x1="440.86" y1="61.01" x2="49.34" y2="61.01"/><polygon class="cls-2" points="0 9.37 30.91 6.95 61.82 9.25 30.91 12.48 0 9.37"/><polygon points="1.55 48.6 0 11.23 29.79 14.52 29.79 60.21 1.55 48.6"/><polygon class="cls-3" points="3.23 15.64 9.25 16.51 9.68 29.23 18.43 31.41 18.12 17.81 25.7 18.93 25.88 54.25 18.87 51.39 18.5 38.05 9.81 35.5 10.18 48.17 4.41 45.99 3.23 15.64"/><polygon class="cls-4" points="32.03 60.21 32.03 14.52 61.82 11.23 60.27 48.54 32.03 60.21"/><polygon class="cls-3" points="35.94 18.93 43.88 17.75 48.29 28.43 52.88 16.45 59.03 15.58 51.02 35.63 50.65 48.48 44.69 50.83 44.75 37.3 35.94 18.93"/><polygon class="cls-5" points="3.17 7.76 2.92 0.68 4.78 0.68 4.97 7.63 3.17 7.76"/><polygon class="cls-6" points="11.98 0.43 12.1 7.08 5.71 7.57 5.52 0.68 11.98 0.43"/><polygon class="cls-5" points="18.43 6.58 18.37 0.19 20.23 0.19 20.23 6.39 18.43 6.58"/><polygon class="cls-6" points="21.04 0.19 26.38 0 26.38 5.9 21.04 6.33 21.04 0.19"/><polygon class="cls-6" points="37.86 59.59 42.08 57.85 44.94 58.97 45.56 60.15 43.76 60.95 40.72 60.77 37.86 59.59"/><polygon class="cls-5" points="35.32 60.7 40.72 62.88 43.76 63 45.56 62.19 45.56 60.89 43.76 61.7 40.72 61.51 36.93 59.96 35.32 60.7"/><polygon class="cls-6" points="53.63 53.13 57.04 51.7 59.83 52.57 60.7 53.5 59.21 54.19 56.42 54 53.63 53.13"/><polygon class="cls-5" points="51.02 54.19 56.42 55.92 59.21 56.05 60.7 55.43 60.7 54.25 59.28 54.93 56.42 54.74 52.63 53.5 51.02 54.19"/><path d="M111.13,51.7V11.31h-9.78V26.58H85.61V11.31H75.83V51.77h9.78V34.82h15.74V51.7h9.78Zm43.54-40.39H143.28l-8.64,14.94L126,11.31H114.21l15.2,23.31V51.77h9.78V34.55l15.47-23.24ZM183.2,15.2A18.28,18.28,0,0,0,177,11.51a21.93,21.93,0,0,0-7-1.27,22.75,22.75,0,0,0-5.63.74,14.31,14.31,0,0,0-5,2.28,12.07,12.07,0,0,0-3.62,4A11.28,11.28,0,0,0,154.4,23a10.74,10.74,0,0,0,.87,4.62,10.49,10.49,0,0,0,2.34,3.28,14.1,14.1,0,0,0,3.28,2.21,23.73,23.73,0,0,0,3.82,1.47c1.34.4,2.55.8,3.55,1.14a9.51,9.51,0,0,1,2.61,1.21,5,5,0,0,1,1.61,1.47,3.19,3.19,0,0,1,.6,1.94,4.13,4.13,0,0,1-.47,2.08,3.93,3.93,0,0,1-1.21,1.34,5.41,5.41,0,0,1-1.81.74,11.09,11.09,0,0,1-2.14.2,10.7,10.7,0,0,1-4.82-1.21,10.59,10.59,0,0,1-3.88-3.08l-6.36,6.5a17.49,17.49,0,0,0,6.76,4.29,23.77,23.77,0,0,0,8.37,1.54,20.63,20.63,0,0,0,5.76-.8,13.8,13.8,0,0,0,5-2.48,11.36,11.36,0,0,0,3.48-4.22,12.92,12.92,0,0,0,1.27-6,9.62,9.62,0,0,0-1.21-5,12.3,12.3,0,0,0-3-3.42,14.12,14.12,0,0,0-4.09-2.21c-1.47-.54-2.88-1.07-4.29-1.54-.94-.33-1.81-.6-2.55-.87a10.5,10.5,0,0,1-1.94-.94A3.68,3.68,0,0,1,164.65,24a3.35,3.35,0,0,1-.4-1.74,3.34,3.34,0,0,1,.54-1.94A4.06,4.06,0,0,1,166.12,19a5.32,5.32,0,0,1,1.81-.67,10.07,10.07,0,0,1,1.94-.2,9.43,9.43,0,0,1,3.88.94A8.35,8.35,0,0,1,177,21.63l6.16-6.43Zm36.17,4.42V11.31H186.75v8.31H198.2V51.7H208V19.62ZM252.05,51.7V43.4H233.3V35h16.81V27.19H233.3v-7.7H251V11.31H223.85V51.77h28.2Zm39.52,0L281,34.42a12.14,12.14,0,0,0,6.16-4,10.78,10.78,0,0,0,2.21-6.9A11.72,11.72,0,0,0,288,17.68a11,11,0,0,0-3.48-3.75,15.43,15.43,0,0,0-5-2,26.94,26.94,0,0,0-5.69-.6h-15.4V51.77H268V35.69h3.35l8.77,16.07h11.45ZM279.11,26.18a4.39,4.39,0,0,1-1.67,1.47,8.26,8.26,0,0,1-2.28.74,16.1,16.1,0,0,1-2.48.2h-4.62V19.15h5.22a13.67,13.67,0,0,1,2.28.2,7.29,7.29,0,0,1,2.14.67,5,5,0,0,1,1.54,1.34,4.05,4.05,0,0,1,.6,2.34,5.41,5.41,0,0,1-.74,2.48Zm29.67,14.27V33H294.25v7.43ZM345,11.31H333.63L325,26.25l-8.64-14.94H304.56l15.2,23.31V51.77h9.78V34.55L345,11.31ZM380,51.7,363.23,11.25h-9.51L336.78,51.7h10.72l2.95-8h15.67l3.15,8ZM363.44,36H353.25l5.16-13.86,5,13.86ZM408.91,51.7V43.19H393.24V11.31h-9.85V51.77h25.52Zm32.75,0V43.4H422.91V35h16.81V27.19H422.91v-7.7h17.75V11.31H413.47V51.77h28.2Z"/></g></g></svg>